<?xml version="1.0" standalone="no"?>
<!DOCTYPE svg PUBLIC "-//W3C//DTD SVG 20010904//EN"
 "http://www.w3.org/TR/2001/REC-SVG-20010904/DTD/svg10.dtd">
<svg version="1.0" xmlns="http://www.w3.org/2000/svg"
 width="286.000000pt" height="286.000000pt" viewBox="0 0 286.000000 286.000000"
 preserveAspectRatio="xMidYMid meet">
<metadata>
Created by potrace 1.11, written by Peter Selinger 2001-2013
</metadata>
<g transform="translate(0.000000,286.000000) scale(0.100000,-0.100000)"
fill="#000000" stroke="none">
<path d="M0 2435 c0 -277 3 -425 10 -425 6 0 10 7 10 15 0 9 9 15 23 15 22 0
22 0 -3 -20 -14 -11 -28 -20 -32 -20 -5 0 -8 -41 -8 -91 0 -57 4 -88 10 -84 5
3 10 1 10 -4 0 -15 47 -14 53 2 4 9 6 9 6 -1 1 -8 -9 -22 -22 -33 -28 -24 -17
-32 76 -56 51 -13 67 -22 67 -35 0 -10 -5 -18 -11 -18 -5 0 -7 6 -3 13 6 10 4
10 -7 0 -7 -7 -21 -13 -30 -13 -10 0 -19 -7 -21 -15 -2 -11 -13 -8 -50 15 -27
17 -55 30 -63 30 -24 0 -17 -24 12 -41 l26 -17 -26 -17 c-27 -17 -27 -18 -27
-146 l0 -129 68 1 c41 0 60 3 48 8 -18 7 -18 8 -2 14 27 11 36 8 30 -8 -5 -11
0 -14 20 -13 23 2 25 4 12 14 -9 6 -13 14 -9 17 10 11 25 8 18 -3 -4 -6 12 -8
42 -5 35 4 42 3 28 -4 -15 -7 -1 -10 52 -10 39 -1 75 -5 78 -11 3 -5 20 -10
36 -10 19 0 28 4 24 11 -7 11 93 8 112 -4 5 -3 148 -9 318 -12 l308 -7 -6 24
c-4 12 -7 40 -7 61 0 34 -3 38 -22 37 -13 -1 -40 -2 -60 -1 l-38 1 0 88 c0
102 7 132 28 132 13 0 12 -3 -3 -20 -15 -17 -16 -20 -3 -20 9 0 18 7 22 15 3
8 10 15 16 15 6 0 8 -4 5 -10 -3 -5 0 -7 8 -4 21 8 31 -38 12 -52 -17 -13 -20
-34 -5 -34 6 0 10 5 10 11 0 6 6 9 13 6 8 -3 26 29 52 94 21 54 43 95 48 92 5
-3 7 -14 4 -24 -3 -11 -1 -16 4 -13 6 3 17 0 25 -7 8 -6 24 -13 37 -15 12 -1
44 -6 71 -10 56 -8 58 10 3 24 l-32 9 35 22 c28 17 47 21 97 19 53 -2 67 1
103 25 43 28 84 35 95 17 4 -6 16 -10 28 -8 36 5 57 -74 60 -219 1 -68 5 -123
10 -123 4 0 7 -7 7 -15 0 -8 4 -15 9 -15 13 0 22 28 10 36 -6 4 -6 11 2 20 10
12 14 12 21 2 6 -10 10 -10 19 2 8 12 9 9 3 -10 -25 -94 -62 -140 -111 -140
-18 0 -33 -4 -33 -9 0 -5 24 -9 54 -10 47 0 54 3 64 25 12 24 47 44 80 44 10
0 42 -16 72 -35 39 -26 62 -34 80 -31 85 19 117 18 160 -4 35 -18 47 -20 67
-11 13 6 34 11 46 11 22 0 22 0 -2 -19 -18 -13 -20 -20 -10 -23 12 -4 12 -7 0
-22 -12 -14 -12 -18 5 -31 16 -12 16 -14 3 -15 -9 0 -30 5 -48 11 -26 9 -37 8
-67 -10 -41 -25 -44 -25 -40 -8 1 6 1 9 -1 4 -3 -4 -9 -5 -14 -1 -5 3 -9 2 -8
-3 6 -34 -2 -41 -35 -33 -18 4 -47 15 -64 25 -29 18 -31 18 -76 -8 -25 -14
-46 -21 -46 -15 0 6 -12 3 -26 -7 l-27 -17 7 26 c5 20 3 24 -8 20 -28 -11 -56
15 -56 51 0 57 -7 65 -59 65 -54 0 -60 -4 -86 -50 -28 -51 -34 -212 -10 -264
22 -45 35 -52 110 -60 41 -4 54 -3 40 3 -11 5 -35 10 -52 10 -18 1 -33 6 -33
11 0 13 30 13 84 -1 24 -6 56 -9 72 -6 l29 4 -32 8 c-34 8 -47 26 -15 20 9 -2
25 -4 35 -4 14 -1 17 -11 17 -55 0 -49 -2 -55 -21 -53 -11 1 -25 10 -31 21 -9
17 -7 18 16 12 15 -4 26 -2 26 4 0 10 -10 12 -50 12 -49 0 -60 -3 -60 -17 0
-18 36 -36 115 -59 33 -9 77 -22 98 -28 88 -26 188 -113 222 -193 19 -45 58
-385 50 -426 -4 -17 0 -30 10 -39 10 -9 15 -31 15 -75 0 -103 -24 -95 276 -95
l264 0 0 179 c0 163 -2 180 -17 184 -17 4 -17 5 0 6 16 1 17 24 17 361 -1 308
-3 360 -15 360 -8 0 -15 5 -15 11 0 6 7 9 15 5 9 -3 15 0 15 8 0 8 -9 16 -20
19 -11 3 -20 13 -20 24 1 17 1 17 11 1 5 -10 14 -18 19 -18 6 0 10 117 10 301
0 197 -3 298 -10 294 -5 -3 -10 3 -10 14 0 12 5 21 10 21 6 0 10 5 10 10 0 7
-13 8 -35 4 -22 -4 -35 -2 -35 5 0 6 8 8 18 5 16 -5 16 -5 -1 9 -16 14 -16 15
12 19 17 2 28 1 25 -3 -2 -4 0 -10 6 -14 6 -4 10 4 10 19 0 13 -6 27 -12 29
-10 4 -10 6 0 6 9 1 12 26 12 91 l0 90 -32 0 c-23 0 -29 3 -19 9 7 5 22 6 32
4 16 -4 19 0 19 26 0 30 -1 31 -47 31 -30 0 -43 3 -35 9 8 4 29 6 48 4 l35 -4
-2 91 c-1 58 -6 90 -13 90 -6 0 -4 5 4 10 13 9 13 11 0 20 -13 9 -13 10 0 11
8 1 -1 5 -20 9 l-35 7 33 2 c17 0 32 6 32 12 0 5 -4 7 -10 4 -6 -3 -10 3 -10
14 0 12 5 21 10 21 6 0 10 47 9 122 0 77 -4 117 -10 107 -7 -11 -9 -11 -9 4 0
9 5 17 10 17 17 0 11 38 -7 43 -17 4 -17 5 0 6 15 1 17 12 17 76 l0 75 -364 0
-365 0 -4 -28 -4 -27 -2 28 -1 27 -100 0 c-82 0 -100 -3 -100 -15 0 -10 -10
-15 -30 -15 -20 0 -30 5 -30 15 0 12 -14 15 -68 15 -54 0 -69 -3 -69 -15 0 -8
4 -15 8 -15 4 0 6 -9 4 -20 -2 -11 0 -20 6 -20 5 0 9 -3 9 -7 0 -5 -13 -7 -30
-7 -16 1 -46 2 -65 3 -32 1 -35 4 -35 31 0 23 -4 30 -20 30 -11 0 -20 5 -20
10 0 6 -35 10 -85 10 -50 0 -85 -4 -85 -10 0 -5 -11 -10 -25 -10 -20 0 -25 -5
-25 -24 0 -13 -7 -29 -15 -36 -8 -7 -15 -22 -16 -34 -1 -19 -2 -19 -10 4 -6
18 -7 13 -3 -18 4 -27 1 -48 -7 -58 -10 -12 -10 -15 2 -12 8 2 14 -5 14 -14 0
-10 6 -23 13 -30 7 -7 12 -37 12 -69 0 -56 1 -58 30 -64 17 -4 30 -13 30 -20
0 -10 -6 -12 -17 -8 -15 6 -16 5 -3 -9 8 -9 17 -16 20 -16 39 2 50 -4 50 -26
0 -13 -6 -27 -13 -29 -6 -3 5 -6 25 -6 33 -1 37 2 43 29 5 23 12 30 31 30 19
0 24 5 24 25 0 18 5 25 20 25 15 0 20 7 20 25 0 19 5 25 21 25 12 0 23 8 26
20 5 20 15 24 43 20 8 -1 12 1 8 5 -11 12 12 47 27 41 8 -3 15 5 18 20 3 20 0
24 -19 24 -19 0 -24 5 -24 25 0 20 -5 25 -25 25 -20 0 -25 5 -25 25 0 25 1 25
73 23 70 -3 72 -4 75 -30 3 -22 9 -28 28 -28 18 0 24 -5 24 -21 0 -16 5 -20
28 -17 20 2 26 8 24 21 -3 15 2 18 25 15 25 -3 28 -7 31 -45 3 -40 2 -42 -22
-37 -15 2 -26 0 -26 -6 0 -5 7 -10 15 -10 8 0 15 -4 15 -10 0 -5 -9 -10 -20
-10 -13 0 -20 7 -20 19 0 13 -7 19 -25 19 -23 0 -30 -9 -26 -30 0 -5 -32 -9
-71 -10 -48 -1 -59 -3 -30 -5 34 -3 42 -8 42 -25 0 -17 -5 -20 -28 -16 -27 4
-28 2 -23 -26 4 -18 14 -30 25 -32 32 -5 30 -14 -2 -14 -18 0 -32 5 -32 10 0
6 -7 10 -15 10 -8 0 -16 -4 -16 -10 -1 -5 -2 -16 -3 -22 0 -7 -13 -14 -28 -16
-22 -3 -27 -9 -30 -35 -2 -24 -7 -31 -20 -29 -14 2 -18 -4 -18 -28 0 -23 4
-30 20 -30 16 0 19 -5 16 -24 -4 -22 0 -25 27 -28 28 -3 32 -7 32 -30 -1 -20
4 -28 17 -28 12 0 18 -7 18 -21 0 -18 -4 -20 -47 -14 -69 10 -83 15 -83 31 0
8 -10 14 -25 14 -14 0 -24 3 -24 8 5 29 -3 42 -26 42 -21 0 -25 5 -25 30 0 25
-4 30 -25 30 -20 0 -25 -5 -25 -25 0 -21 -5 -25 -30 -25 -25 0 -30 -4 -30 -24
0 -26 -16 -36 -63 -37 -18 0 -26 -3 -19 -6 6 -2 12 -20 12 -38 0 -34 -16 -45
-66 -45 -12 0 -24 -7 -28 -15 -3 -8 -16 -20 -30 -26 -13 -6 -27 -20 -29 -30
-4 -16 -15 -19 -62 -19 -31 0 -54 4 -51 8 3 5 6 108 7 230 1 212 7 257 30 221
14 -22 10 -39 -8 -39 -16 -1 -16 -2 -2 -10 10 -6 15 -20 14 -35 -3 -23 0 -25
42 -25 43 0 44 -1 41 -27 -3 -26 -6 -28 -45 -27 l-43 1 0 -78 0 -79 39 0 c30
0 38 4 37 17 -1 11 7 17 27 18 34 2 39 7 41 39 0 14 5 26 9 26 14 0 20 -31 8
-43 -16 -16 -13 -27 8 -27 17 0 18 10 18 120 0 123 -2 128 -40 121 -5 -1 -7 9
-5 21 2 13 9 22 16 21 6 -2 12 2 12 8 0 6 -10 10 -22 9 -53 -5 -68 0 -68 20 0
11 5 20 12 20 6 0 8 3 4 8 -4 4 -28 7 -53 7 -61 0 -70 22 -11 28 l43 4 -50 1
c-44 2 -51 5 -51 22 0 21 -1 21 175 11 8 -1 11 -8 8 -21 -4 -15 0 -20 14 -20
17 0 19 8 19 70 0 56 -3 70 -15 70 -8 0 -15 -9 -15 -20 0 -18 -7 -20 -87 -22
-61 -1 -72 -3 -35 -5 37 -3 52 -8 52 -19 0 -11 -14 -14 -60 -14 l-59 0 4 38
c3 20 7 70 9 110 l5 72 -545 0 -544 0 0 -425z m257 343 c-3 -8 -6 -5 -6 6 -1
11 2 17 5 13 3 -3 4 -12 1 -19z m1593 -10 c-1 -21 -2 -21 -11 -5 -6 9 -14 15
-20 12 -5 -4 -9 -1 -9 4 0 6 9 11 20 11 14 0 20 -7 20 -22z m-490 -7 c0 -6 -4
-13 -10 -16 -5 -3 -10 1 -10 9 0 9 5 16 10 16 6 0 10 -4 10 -9z m160 -21 c0
-25 4 -30 25 -30 18 0 25 -5 25 -20 0 -18 -7 -20 -75 -20 -72 0 -75 1 -75 24
0 21 4 23 33 22 31 -3 33 -1 29 26 -4 23 -1 28 17 28 17 0 21 -6 21 -30z
m1307 8 c-3 -8 -6 -5 -6 6 -1 11 2 17 5 13 3 -3 4 -12 1 -19z m-1213 3 c3 -5
-1 -12 -10 -15 -22 -9 -24 -8 -24 9 0 16 25 21 34 6z m-837 -138 c-2 -16 -4
-3 -4 27 0 30 2 43 4 28 2 -16 2 -40 0 -55z m2046 60 c-7 -2 -19 -2 -25 0 -7
3 -2 5 12 5 14 0 19 -2 13 -5z m-1356 -33 c-4 -17 0 -20 24 -20 22 0 29 5 29
20 0 17 7 20 49 20 44 0 50 -2 48 -20 -1 -14 -8 -20 -24 -20 -16 0 -23 -6 -23
-20 0 -16 -7 -20 -30 -20 -17 0 -29 -3 -29 -7 4 -27 -3 -43 -21 -43 -15 0 -20
7 -20 25 0 21 -5 25 -31 25 -28 0 -31 2 -25 26 5 17 3 25 -6 23 -38 -5 -68 2
-68 16 0 12 14 15 66 15 61 0 66 -1 61 -20z m930 -102 c-2 -24 -4 -7 -4 37 0
44 2 63 4 43 2 -21 2 -57 0 -80z m-1620 -50 c-2 -18 -4 -4 -4 32 0 36 2 50 4
33 2 -18 2 -48 0 -65z m50 50 c-3 -8 -6 -5 -6 6 -1 11 2 17 5 13 3 -3 4 -12 1
-19z m301 -5 c-16 -2 -28 -9 -28 -14 0 -5 -5 -9 -11 -9 -8 0 -8 5 1 15 7 8 24
14 39 14 l26 -2 -27 -4z m782 -88 c0 -21 5 -25 30 -25 30 0 30 -1 30 -55 0
-50 -2 -55 -22 -56 -17 -1 -19 -2 -5 -6 10 -3 17 -14 17 -29 0 -20 -5 -24 -29
-24 -22 0 -30 -6 -35 -25 -5 -18 -13 -25 -31 -25 -33 0 -34 37 -2 50 18 8 14
9 -23 8 -43 -2 -45 -1 -44 25 1 23 -3 27 -27 27 l-29 0 2 73 c1 55 2 61 5 25
4 -43 7 -48 29 -48 20 0 24 5 24 29 0 23 5 30 23 33 14 2 23 11 25 26 3 17 10
22 33 22 24 0 29 -4 29 -25z m757 9 c-3 -3 -12 -4 -19 -1 -8 3 -5 6 6 6 11 1
17 -2 13 -5z m63 -24 c0 -5 -19 -10 -42 -9 -37 1 -39 2 -18 9 36 12 60 12 60
0z m-1013 -92 c-2 -13 -4 -5 -4 17 -1 22 1 32 4 23 2 -10 2 -28 0 -40z m1063
42 c0 -5 -4 -10 -10 -10 -5 0 -10 5 -10 10 0 6 5 10 10 10 6 0 10 -4 10 -10z
m-1040 -84 c0 -8 -7 -16 -15 -20 -10 -4 -15 1 -15 14 0 11 7 20 15 20 8 0 15
-6 15 -14z m1030 4 c0 -5 -12 -10 -27 -10 -22 0 -25 2 -13 10 20 13 40 13 40
0z m-667 -56 c65 -7 78 -25 17 -22 -22 1 -40 5 -40 10 0 4 -25 8 -55 8 -33 0
-55 4 -55 11 0 7 14 9 38 5 20 -3 63 -8 95 -12z m567 6 c-12 -8 -10 -10 8 -10
13 0 20 4 17 10 -3 6 3 10 14 10 12 0 21 -7 21 -15 0 -16 -64 -22 -74 -6 -7
10 3 21 18 21 6 0 4 -5 -4 -10z m170 -43 c0 -7 -9 -13 -20 -14 -16 -1 -17 1
-7 12 15 18 27 19 27 2z m-920 -27 c0 -5 -4 -10 -9 -10 -6 0 -13 5 -16 10 -3
6 1 10 9 10 9 0 16 -4 16 -10z m920 -10 c0 -6 -11 -8 -27 -4 -40 10 -41 14 -5
14 18 0 32 -5 32 -10z m-1050 -39 c0 -13 8 -21 23 -23 14 -2 23 -11 25 -25 5
-31 52 -33 52 -3 0 16 7 20 35 20 l35 0 0 -70 c0 -38 -4 -70 -9 -70 -21 0 -61
20 -61 30 0 15 -56 62 -99 82 -34 15 -34 17 -11 18 21 2 18 4 -13 12 -20 6
-42 19 -48 29 -9 17 -6 19 31 19 33 0 40 -3 40 -19z m80 -21 c0 -5 -2 -10 -4
-10 -3 0 -8 5 -11 10 -3 6 -1 10 4 10 6 0 11 -4 11 -10z m-1555 -20 c4 -6 -7
-10 -25 -10 -18 0 -29 4 -25 10 3 6 15 10 25 10 10 0 22 -4 25 -10z m2415 0
c0 -5 -4 -10 -10 -10 -5 0 -10 5 -10 10 0 6 5 10 10 10 6 0 10 -4 10 -10z
m-1177 -29 c-2 -6 4 -11 12 -11 16 0 28 -8 67 -44 l21 -19 -21 -8 c-32 -12
-27 -19 8 -13 28 6 29 5 28 -29 -1 -24 -7 -38 -17 -40 -9 -3 -5 -5 9 -6 19 -1
21 -4 10 -10 -8 -5 -32 -6 -53 -4 -28 4 -35 8 -28 17 8 9 3 12 -22 9 -17 -2
-26 0 -20 3 20 9 -11 34 -41 34 -19 0 -24 4 -19 16 3 9 15 20 27 25 18 8 18 9
-7 6 -30 -5 -78 25 -64 39 5 5 26 8 48 8 21 -1 39 2 39 7 0 5 -8 6 -17 2 -16
-6 -16 -4 1 16 20 22 43 23 39 2z m-94 5 c-2 -2 -15 -9 -29 -15 -24 -11 -24
-11 -6 3 16 13 49 24 35 12z m-304 -56 c-4 -6 -11 -8 -16 -5 -5 3 -6 -2 -2
-11 5 -12 3 -15 -6 -9 -10 5 -12 1 -7 -16 6 -23 6 -23 -6 1 -7 14 -13 26 -14
28 0 1 -9 0 -18 -4 -20 -8 -21 -24 -1 -24 8 0 15 -7 15 -15 0 -8 -7 -15 -15
-15 -8 0 -15 -4 -15 -10 0 -5 7 -10 15 -10 8 0 15 -9 15 -20 0 -11 -7 -20 -15
-20 -8 0 -15 -4 -15 -10 0 -5 6 -10 14 -10 15 0 12 -70 -4 -122 -6 -17 -5 -28
1 -28 5 0 9 -4 9 -8 0 -5 -7 -9 -15 -9 -13 0 -15 25 -15 164 l0 163 51 0 c31
0 48 -4 44 -10z m1685 -5 c0 -10 -10 -15 -30 -15 -20 0 -30 5 -30 15 0 10 10
15 30 15 20 0 30 -5 30 -15z m-175 -44 c3 -5 2 -12 -3 -15 -5 -3 -9 1 -9 9 0
17 3 19 12 6z m-708 -33 c-3 -8 -6 -5 -6 6 -1 11 2 17 5 13 3 -3 4 -12 1 -19z
m-1907 -2 c0 -3 -4 -8 -10 -11 -5 -3 -10 -1 -10 4 0 6 5 11 10 11 6 0 10 -2
10 -4z m105 -6 c3 -5 1 -10 -4 -10 -6 0 -11 5 -11 10 0 6 2 10 4 10 3 0 8 -4
11 -10z m270 -20 c0 -7 -6 -15 -12 -17 -8 -3 -13 4 -13 17 0 13 5 20 13 18 6
-3 12 -11 12 -18z m2292 4 c-3 -3 -12 -4 -19 -1 -8 3 -5 6 6 6 11 1 17 -2 13
-5z m-2387 -51 c0 -21 -27 -15 -43 11 -16 24 -16 24 13 13 17 -6 30 -17 30
-24z m95 -19 c14 -15 25 -31 25 -36 0 -5 5 -6 11 -2 8 4 8 9 0 17 -15 15 -14
38 2 35 6 -2 15 -11 19 -21 5 -10 13 -15 20 -12 7 4 -3 -7 -22 -24 -26 -23
-30 -31 -17 -31 9 0 17 -4 17 -10 0 -5 10 -10 23 -10 21 -1 21 -1 2 -12 -30
-16 -31 -18 -15 -28 12 -8 9 -10 -11 -10 -27 0 -45 -23 -32 -43 4 -6 0 -8 -10
-4 -9 3 -19 2 -22 -3 -4 -6 -17 -10 -31 -10 -19 0 -24 5 -24 25 0 14 5 25 10
25 6 0 10 5 10 10 0 7 -6 7 -19 1 -21 -12 -31 -5 -31 18 0 14 2 14 10 1 8 -13
10 -12 10 3 0 19 26 23 32 5 6 -17 58 39 58 62 0 26 -26 45 -34 25 -3 -8 -13
-15 -23 -15 -10 0 -31 -7 -47 -15 -15 -8 -29 -15 -30 -15 -1 0 -2 15 -3 34 -1
26 3 33 16 30 9 -3 30 5 46 16 17 11 31 20 33 20 2 0 14 -12 27 -26z m-228 0
c-3 -3 -12 -4 -19 -1 -8 3 -5 6 6 6 11 1 17 -2 13 -5z m2556 -1 c-7 -2 -19 -2
-25 0 -7 3 -2 5 12 5 14 0 19 -2 13 -5z m-1953 -38 c0 -14 -2 -25 -4 -25 -2 0
-6 11 -8 25 -3 14 -1 25 3 25 5 0 9 -11 9 -25z m1587 -167 c-2 -35 -3 -7 -3
62 0 69 1 97 3 63 2 -35 2 -91 0 -125z m80 150 c-3 -7 -5 -2 -5 12 0 14 2 19
5 13 2 -7 2 -19 0 -25z m-1917 3 c0 -5 -13 -14 -30 -20 -25 -8 -30 -7 -30 5 0
11 6 13 19 9 11 -3 22 -1 26 5 8 12 15 13 15 1z m-258 -18 c2 -10 -1 -26 -6
-36 -9 -14 -7 -20 7 -28 28 -17 19 -29 -10 -13 -16 7 -35 14 -43 14 -10 0 -11
3 -4 8 6 4 17 22 25 40 16 36 26 41 31 15z m2477 -18 c0 -11 -3 -14 -6 -7 -2
6 -8 10 -13 7 -4 -3 -13 1 -19 9 -10 11 -7 14 14 12 18 -1 25 -6 24 -21z
m-2389 11 c0 -3 -4 -8 -10 -11 -5 -3 -10 -1 -10 4 0 6 5 11 10 11 6 0 10 -2
10 -4z m2347 -47 c-1 -18 -6 -20 -47 -15 -60 6 -59 6 -30 17 17 7 26 7 28 0 2
-7 10 -5 19 4 20 21 32 19 30 -6z m-2177 -36 c0 -7 -11 -13 -25 -13 -30 0 -31
7 -7 30 17 17 32 10 32 -17z m-310 -8 c0 -8 -2 -15 -4 -15 -2 0 -6 7 -10 15
-3 8 -1 15 4 15 6 0 10 -7 10 -15z m-50 -16 c0 -11 -21 -11 -39 0 -9 6 -5 9
13 9 14 0 26 -4 26 -9z m150 -9 c0 -5 -5 -10 -11 -10 -5 0 -7 5 -4 10 3 6 8
10 11 10 2 0 4 -4 4 -10z m200 0 c0 -5 -5 -10 -11 -10 -5 0 -7 5 -4 10 3 6 8
10 11 10 2 0 4 -4 4 -10z m123 -84 c29 2 66 0 82 -5 l30 -9 -25 -9 -25 -10 23
-7 c15 -5 22 -15 22 -32 0 -20 -5 -24 -28 -24 -15 0 -34 6 -40 12 -10 10 -14
10 -21 0 -5 -8 -23 -11 -47 -9 -21 1 -50 -3 -63 -10 -14 -6 -28 -10 -33 -7
-10 6 -10 85 0 101 8 13 65 22 70 11 2 -4 27 -5 55 -2z m1724 -28 c-3 -7 -5
-2 -5 12 0 14 2 19 5 13 2 -7 2 -19 0 -25z m-438 -40 c0 -7 -4 -22 -9 -33 -7
-17 -9 -15 -9 13 -1 17 4 32 9 32 6 0 10 -6 9 -12z m438 -40 c-3 -7 -5 -2 -5
12 0 14 2 19 5 13 2 -7 2 -19 0 -25z m-1587 0 c0 -7 -5 -20 -10 -28 -8 -12
-10 -9 -10 13 0 15 5 27 10 27 6 0 10 -6 10 -12z m165 -18 c-3 -5 -27 -9 -53
-9 -46 2 -46 2 -12 9 53 11 72 11 65 0z m-687 -7 c-10 -2 -26 -2 -35 0 -10 3
-2 5 17 5 19 0 27 -2 18 -5z m212 -3 c0 -5 -7 -10 -15 -10 -8 0 -15 5 -15 10
0 6 7 10 15 10 8 0 15 -4 15 -10z m1887 -262 c-1 -40 -3 -8 -3 72 0 80 2 112
3 73 2 -40 2 -106 0 -145z m446 155 c3 -5 -16 -7 -41 -5 -73 5 -82 10 -20 11
31 0 59 -2 61 -6z m-216 -40 c-3 -10 -5 -4 -5 12 0 17 2 24 5 18 2 -7 2 -21 0
-30z m196 20 c-7 -2 -19 -2 -25 0 -7 3 -2 5 12 5 14 0 19 -2 13 -5z m-23 -30
c0 -11 -3 -14 -8 -7 -4 6 -14 14 -22 17 -10 4 -8 6 8 6 15 1 22 -5 22 -16z
m-20 -7 c0 -2 -9 -6 -20 -9 -11 -3 -18 -1 -14 4 5 9 34 13 34 5z m-160 -81 c0
-8 -2 -15 -4 -15 -2 0 -6 7 -10 15 -3 8 -1 15 4 15 6 0 10 -7 10 -15z m57 -1
c-3 -3 -12 -4 -19 -1 -8 3 -5 6 6 6 11 1 17 -2 13 -5z m-67 -64 c0 11 2 12 8
3 4 -7 18 -11 30 -8 12 2 22 0 22 -6 0 -5 -23 -9 -51 -9 -45 0 -50 2 -39 15
11 13 15 13 21 3 7 -10 9 -10 9 2z m-663 -42 c-3 -7 -5 -2 -5 12 0 14 2 19 5
13 2 -7 2 -19 0 -25z m-163 -52 c28 -5 43 -13 35 -19 -2 -2 -28 -1 -56 1 -37
3 -53 8 -53 18 0 10 7 13 23 9 12 -3 35 -7 51 -9z m611 -274 c-4 -62 -9 -111
-12 -108 -3 3 -2 81 3 173 5 100 10 144 12 108 2 -33 1 -111 -3 -173z m215
128 c0 -17 -6 -20 -37 -19 l-38 1 35 10 c34 11 34 11 10 18 l-25 8 28 1 c21 1
27 -4 27 -19z m-70 -48 c0 -4 -12 -8 -27 -9 -24 -1 -25 -1 -8 7 26 11 35 12
35 2z m288 -29 c-10 -2 -26 -2 -35 0 -10 3 -2 5 17 5 19 0 27 -2 18 -5z m-211
-159 c-3 -3 -12 -4 -19 -1 -8 3 -5 6 6 6 11 1 17 -2 13 -5z m26 -61 c-7 -2
-21 -2 -30 0 -10 3 -4 5 12 5 17 0 24 -2 18 -5z"/>
<path d="M1843 2335 c2 -14 6 -25 10 -25 4 0 16 0 27 0 13 0 20 7 20 19 0 11
6 22 13 24 6 3 -7 6 -31 6 -40 1 -42 -1 -39 -24z"/>
<path d="M2798 2003 c7 -3 16 -2 19 1 4 3 -2 6 -13 5 -11 0 -14 -3 -6 -6z"/>
<path d="M1112 2820 c-1 -40 -1 -40 39 -40 37 0 39 2 39 30 0 28 2 30 41 30
24 0 38 4 34 10 -3 6 -39 10 -79 10 l-74 0 0 -40z"/>
<path d="M1353 2373 c9 -2 25 -2 35 0 9 3 1 5 -18 5 -19 0 -27 -2 -17 -5z"/>
<path d="M1580 1681 c0 -11 69 -20 76 -10 2 4 -3 10 -12 13 -24 9 -64 7 -64
-3z"/>
<path d="M1291 1672 c-19 -6 -12 -22 9 -22 27 0 100 -23 100 -32 0 -3 -8 -9
-17 -11 -11 -3 -6 -5 11 -6 16 0 26 2 23 6 -4 3 -2 12 3 18 12 15 3 45 -14 46
-6 0 -32 1 -57 2 -26 2 -52 1 -58 -1z"/>
<path d="M1576 1631 c-35 -23 -21 -35 44 -37 25 -1 53 -6 64 -10 13 -5 17 -3
14 6 -2 8 -20 18 -39 23 -19 4 -39 14 -45 22 -9 12 -15 11 -38 -4z"/>
<path d="M1070 1610 c-13 -8 -12 -10 3 -10 9 0 17 5 17 10 0 12 -1 12 -20 0z"/>
<path d="M1061 1558 c1 -24 3 -27 6 -10 2 12 9 20 14 17 5 -4 9 1 9 9 0 9 -7
16 -15 16 -11 0 -15 -10 -14 -32z"/>
<path d="M1570 1576 c0 -2 7 -7 16 -10 8 -3 12 -2 9 4 -6 10 -25 14 -25 6z"/>
<path d="M1081 1534 c0 -11 3 -14 6 -6 3 7 2 16 -1 19 -3 4 -6 -2 -5 -13z"/>
<path d="M1060 1481 c0 -4 11 -6 25 -3 14 2 25 6 25 8 0 2 -11 4 -25 4 -14 0
-25 -4 -25 -9z"/>
<path d="M1395 1460 c3 -5 11 -10 16 -10 6 0 7 5 4 10 -3 6 -11 10 -16 10 -6
0 -7 -4 -4 -10z"/>
<path d="M1348 1363 c7 -3 16 -2 19 1 4 3 -2 6 -13 5 -11 0 -14 -3 -6 -6z"/>
<path d="M1395 1350 c19 -8 83 -14 74 -6 -2 2 -24 6 -49 9 -30 4 -38 3 -25 -3z"/>
<path d="M1508 1333 c6 -2 18 -2 25 0 6 3 1 5 -13 5 -14 0 -19 -2 -12 -5z"/>
<path d="M836 1322 c-2 -1 -41 -4 -87 -7 -74 -4 -87 -7 -105 -29 -25 -28 -38
-30 -194 -26 -76 1 -105 5 -84 9 17 5 42 15 55 24 23 16 21 17 -54 17 -45 0
-77 -4 -77 -10 0 -13 -43 -13 -57 1 -15 15 -58 7 -59 -11 -4 -43 -5 -45 -14
-25 -5 11 -9 14 -9 8 -1 -15 -37 -17 -46 -3 -3 6 1 10 10 10 9 0 13 5 10 10
-4 6 -11 8 -16 5 -5 -4 -9 -1 -9 4 0 6 -21 11 -50 11 -36 0 -50 -4 -50 -14 0
-8 6 -17 13 -19 9 -4 9 -6 0 -6 -8 -1 -13 -15 -13 -35 l0 -34 57 -5 c73 -7 88
-10 104 -24 8 -6 19 -11 24 -10 6 1 11 -10 13 -25 3 -22 9 -28 28 -28 19 0 24
-5 24 -25 0 -20 5 -25 25 -25 18 0 25 5 25 20 0 11 7 23 15 26 8 4 16 16 16
28 1 18 2 17 8 -5 6 -25 7 -25 36 -12 21 10 23 13 8 9 -30 -6 -30 20 0 28 47
12 113 3 102 -14 -3 -5 4 -11 15 -15 39 -12 19 -21 -47 -19 -38 1 -52 -1 -32
-3 26 -3 38 -10 42 -24 6 -23 -3 -30 -32 -24 -17 3 -21 -1 -21 -21 0 -19 6
-26 30 -30 16 -4 28 -11 27 -18 -1 -6 14 -12 36 -14 32 -3 37 -7 37 -28 0 -18
5 -24 21 -24 11 0 18 4 15 8 -3 5 -1 22 4 38 7 26 8 25 9 -18 1 -27 4 -48 7
-48 4 0 22 9 40 21 24 15 62 23 136 30 127 12 204 33 218 59 9 17 8 20 -10 20
-24 0 -24 31 0 42 8 4 -3 7 -26 7 -36 1 -42 4 -46 26 -5 25 -4 25 58 25 61 0
64 -1 64 -24 0 -15 -7 -26 -17 -29 -10 -3 2 -6 27 -7 l45 -3 -55 -7 -55 -7 48
-1 c26 -1 47 -7 47 -13 0 -17 60 23 90 61 49 62 66 172 32 203 -13 12 -40 17
-109 18 -50 1 -96 -2 -103 -6 -6 -4 -17 -2 -24 4 -10 9 -112 12 -120 3z m-120
-44 c2 -14 -5 -18 -24 -17 -24 0 -25 1 -7 9 11 5 14 9 8 9 -7 1 -13 6 -13 12
0 18 33 5 36 -13z m87 -15 c-13 -2 -33 -2 -45 0 -13 2 -3 4 22 4 25 0 35 -2
23 -4z m-13 -72 c25 -7 34 -30 17 -42 -6 -4 0 -10 12 -14 17 -5 21 -14 21 -46
l0 -39 -90 0 -90 0 0 -40 c0 -22 -4 -40 -10 -40 -5 0 -10 6 -10 14 0 9 -12 16
-32 18 -32 3 -33 5 -33 46 0 24 3 46 8 49 4 2 7 -10 7 -27 0 -25 3 -31 16 -26
9 3 20 6 26 6 6 0 7 7 4 16 -4 10 0 18 11 20 15 4 17 14 15 49 -4 39 -1 46 19
54 28 11 73 12 109 2z m-250 -63 c0 -6 -6 -5 -15 2 -8 7 -15 14 -15 16 0 2 7
1 15 -2 8 -4 15 -11 15 -16z m-3 -105 c-3 -10 -5 -4 -5 12 0 17 2 24 5 18 2
-7 2 -21 0 -30z"/>
<path d="M1917 1269 c-4 -29 -5 -54 -3 -56 4 -4 56 44 56 52 0 3 -11 17 -24
31 l-23 26 -6 -53z"/>
<path d="M2170 1268 c0 -30 0 -31 20 -13 15 14 17 21 9 32 -19 22 -29 15 -29
-19z"/>
<path d="M433 1123 c9 -2 23 -2 30 0 6 3 -1 5 -18 5 -16 0 -22 -2 -12 -5z"/>
<path d="M0 726 l0 -354 23 -6 c12 -3 41 -6 65 -6 31 0 42 4 42 16 0 8 -4 13
-8 10 -5 -3 -6 9 -3 27 3 18 6 25 8 16 5 -22 77 -18 81 5 3 13 -5 16 -37 16
l-40 0 2 50 c2 44 5 50 24 50 12 0 24 6 26 13 3 6 6 3 6 -7 1 -20 1 -20 15 0
13 17 14 15 9 -23 -5 -41 -4 -43 21 -43 21 0 26 -5 26 -25 0 -21 5 -25 31 -25
26 0 30 3 27 23 -2 18 2 23 27 25 29 3 31 7 48 75 9 40 17 85 17 101 0 16 3
27 6 23 10 -9 72 117 62 128 -4 5 -8 19 -8 32 0 20 -5 23 -32 21 -27 -3 -33 1
-34 17 -2 41 -4 45 -24 45 -15 0 -20 7 -20 26 0 14 -3 23 -7 21 -14 -8 -53 12
-53 26 0 9 -10 15 -25 15 -17 0 -25 -6 -25 -18 0 -15 -6 -17 -31 -13 -28 4
-29 3 -18 -15 10 -16 8 -23 -10 -41 -11 -11 -21 -28 -21 -36 0 -8 -5 -15 -10
-15 -12 0 -3 129 10 143 4 5 6 17 3 27 -5 17 -61 30 -140 30 l-33 0 0 -354z
m347 137 c-3 -10 -5 -4 -5 12 0 17 2 24 5 18 2 -7 2 -21 0 -30z m-143 -8 c3
-9 0 -15 -9 -15 -8 0 -15 7 -15 15 0 8 4 15 9 15 5 0 11 -7 15 -15z m104 -12
c3 -18 10 -23 33 -23 26 0 29 -3 29 -30 0 -25 4 -30 23 -30 17 0 23 -6 25 -26
2 -24 0 -25 -53 -23 -50 2 -55 4 -55 26 0 18 -5 23 -25 23 -21 0 -25 -5 -25
-30 0 -30 1 -30 55 -30 52 0 55 -1 55 -25 0 -21 -5 -25 -30 -25 -23 0 -30 -4
-30 -20 0 -15 -7 -20 -25 -20 -18 0 -25 5 -25 19 0 23 -30 37 -42 19 -5 -9 -8
-3 -9 17 -1 17 -1 33 0 38 0 4 -8 7 -19 7 -15 0 -20 7 -20 25 0 18 5 25 20 25
16 0 20 7 20 30 0 25 4 30 25 30 20 0 25 5 25 26 0 21 4 25 23 22 14 -2 23
-11 25 -25z m-148 -258 c0 -8 -4 -15 -10 -15 -5 0 -10 7 -10 15 0 8 5 15 10
15 6 0 10 -7 10 -15z m100 -17 c0 -19 -2 -20 -10 -8 -13 19 -13 30 0 30 6 0
10 -10 10 -22z m-173 -194 c-3 -3 -12 -4 -19 -1 -8 3 -5 6 6 6 11 1 17 -2 13
-5z"/>
<path d="M697 503 c-11 -10 -8 -51 3 -58 6 -4 10 8 10 29 0 37 -2 41 -13 29z"/>
<path d="M620 475 c0 -4 14 -28 32 -54 29 -42 31 -54 36 -146 4 -89 2 -98 -10
-81 -13 17 -14 10 -10 -62 4 -69 2 -83 -12 -88 -19 -7 -22 -44 -2 -44 7 0 18
6 23 12 14 18 44 238 37 266 -4 12 -1 29 6 37 11 13 10 18 -8 31 -12 8 -22 22
-22 30 0 8 -10 29 -22 47 -28 39 -48 61 -48 52z"/>
<path d="M288 412 c-36 -4 -38 -32 -3 -32 14 0 28 7 32 15 7 20 4 21 -29 17z"/>
<path d="M220 345 c0 -20 -5 -25 -25 -25 -16 0 -25 -6 -25 -15 0 -8 -9 -15
-19 -15 -11 0 -22 -8 -24 -17 -2 -10 -2 2 0 27 l4 45 -65 1 -66 2 0 -144 0
-144 144 0 c159 0 196 8 196 41 0 19 -4 21 -37 16 -21 -2 -44 -6 -52 -8 -8 -2
-17 4 -19 14 -2 10 2 17 12 17 9 0 16 3 16 8 0 4 -18 6 -40 4 -34 -4 -39 -2
-34 12 5 13 9 14 20 5 11 -9 14 -9 14 0 0 22 45 7 48 -15 4 -31 58 -21 65 12
4 23 2 24 -54 24 -52 0 -59 2 -59 20 0 16 7 20 37 20 29 0 34 3 25 12 -20 20
-14 38 12 38 18 0 25 -6 28 -22 7 -48 23 -20 26 45 l3 67 -66 0 c-63 0 -65 -1
-65 -25z m97 -251 c-3 -3 -12 -4 -19 -1 -8 3 -5 6 6 6 11 1 17 -2 13 -5z"/>
<path d="M2016 354 c-9 -24 -2 -26 12 -4 7 11 8 20 3 20 -5 0 -12 -7 -15 -16z"/>
<path d="M1933 171 c-17 -36 -34 -73 -36 -81 -3 -8 -12 -32 -21 -52 l-16 -38
38 0 c37 0 38 1 34 33 -2 20 6 57 21 95 17 40 23 70 19 85 -6 21 -11 16 -39
-42z"/>
<path d="M478 61 c30 -8 67 -32 83 -55 4 -5 13 -6 20 -4 22 7 -57 59 -98 63
-38 5 -38 5 -5 -4z"/>
<path d="M0 23 l0 -23 160 0 160 0 0 26 0 25 -160 -2 c-159 -3 -160 -3 -160
-26z"/>
</g>
</svg>
